PathFileType	4	(X/Y/Z)	Walk2.trc
DataRate	CameraRate	NumFrames	NumMarkers	Units	OrigDataRate	OrigDataStartFrame	OrigNumFrames
200.000000	200.000000	7	61	mm	200.000000	283	450
Frame#	Times		LFHD		RFHD		CLAV		STRN		LASI		RASI		RACR1		RUA1		RWRU		RCAR		LACR1		LUA1		LFA1		LWRU		LCAR		RTH3		RTH2		RTB1		LTH1		LTH3		LTH2		LTH4		LLFC		LTB1		LTB3		LTB2		LTB4		LToe		RTB4		RWRR		LBHD		RLFC		RMFC		RTB3		RMT5		RToe		RFA1		LWRR		LElbow		RTH4		RMT1		RTB2		RMMAL		LMFC		LPSI		RTH1		RElbow		LElbowM		LMT5		RBHD		RBack		RPSI		RLMAL		RCAL		C7		T10		LMMAL		LMT1		RElbowM		LCAL		LLMAL
			X1	Y1	Z1	X2	Y2	Z2	X3	Y3	Z3	X4	Y4	Z4	X5	Y5	Z5	X6	Y6	Z6	X7	Y7	Z7	X8	Y8	Z8	X9	Y9	Z9	X10	Y10	Z10	X11	Y11	Z11	X12	Y12	Z12	X13	Y13	Z13	X14	Y14	Z14	X15	Y15	Z15	X16	Y16	Z16	X17	Y17	Z17	X18	Y18	Z18	X19	Y19	Z19	X20	Y20	Z20	X21	Y21	Z21	X22	Y22	Z22	X23	Y23	Z23	X24	Y24	Z24	X25	Y25	Z25	X26	Y26	Z26	X27	Y27	Z27	X28	Y28	Z28	X29	Y29	Z29	X30	Y30	Z30	X31	Y31	Z31	X32	Y32	Z32	X33	Y33	Z33	X34	Y34	Z34	X35	Y35	Z35	X36	Y36	Z36	X37	Y37	Z37	X38	Y38	Z38	X39	Y39	Z39	X40	Y40	Z40	X41	Y41	Z41	X42	Y42	Z42	X43	Y43	Z43	X44	Y44	Z44	X45	Y45	Z45	X46	Y46	Z46	X47	Y47	Z47	X48	Y48	Z48	X49	Y49	Z49	X50	Y50	Z50	X51	Y51	Z51	X52	Y52	Z52	X53	Y53	Z53	X54	Y54	Z54	X55	Y55	Z55	X56	Y56	Z56	X57	Y57	Z57	X58	Y58	Z58	X59	Y59	Z59	X60	Y60	Z60	X61	Y61	Z61

283	1.415	378.18	1553.5	-77.035	378.77	1558.6	22.255	320.21	1293.8	-16.392	344.75	1160.9	-11.027	286.97	882.24	-130.05	320.99	902.11	115.92	236.93	1332.5	146.64	206.54	1169.4	208.35	202.85	760.94	271.99	167.69	699.57	318.32	246.84	1350.7	-165.66	259.69	1185.9	-242.29	393.2	947.93	-296.64	506.53	909.96	-260.52	544.54	849.78	-292.96	364.91	585.98	160.65	384.77	689.62	152.13	455.85	350	88.919	193.72	724.17	-180.54	147.7	561.76	-150.36	224.84	631.24	-150.78	169.87	642.28	-167.43	93.339	430.24	-131.8	65.35	322.37	-68.322	-58.292	205.86	-56.152	-13.702	275.79	-120.97	0.86868	265.66	-62.968	-66.277	20.584	-27.161	462.89	263.66	80.225	141.03	770.06	302.5	226.91	1511.7	-97.276	415.36	450.3	122.77	384.19	437.41	-0.268	468.61	178.87	68.533	535.53	28.603	88.638	615.37	52.521	36.122	174.21	886.94	288.68	463.84	857.58	-277.85	275.98	1034.6	-288.27	339.29	664.09	182.24	567.01	46.217	7.6744	418.22	256.19	121.14	439.63	85.708	1.2117	82.221	426.32	0.3164	125.02	943.48	-25.881	313.75	744.51	204.97	165.29	1011.6	247.56	257.18	1001.2	-222.74	-136.44	41.34	-84.674	230.95	1524.9	47.511	128.53	1269.2	51.054	141.43	942.88	72.935	429.67	61.828	80.411	381.38	33.849	36.075	207.75	1396.2	-20.443	132.44	1184.5	-9.366	-150.59	164.41	-17.396	-111.85	39.552	-4.5387	146.61	1002.2	171.95	-226.95	178.12	-56.209	-173.16	157.3	-96.404
284	1.42	386.14	1554	-76.757	386.81	1559.2	22.529	328.85	1294	-15.865	353.41	1161.1	-10.193	295.6	881.93	-129.14	329.16	902.99	116.48	245.66	1332.6	147.18	215.75	1169.4	208.8	213.03	760.85	272.03	178.14	699.41	318.41	255.44	1350.7	-165.24	266.94	1185.6	-241.6	398.74	946.27	-296.15	511.88	907.19	-260.66	549.02	846.61	-293.29	373.14	586.92	160.76	392.87	690.61	152.98	462.25	349.46	88.294	203.85	723.11	-179.76	160.08	560	-150.15	236.17	630.53	-150.09	181.13	640.89	-166.85	107.17	428.12	-132.09	76.967	320.97	-68.678	-49.498	207.51	-57.001	-2.9566	276.3	-121.64	11.122	265.86	-63.599	-64.8	20.309	-27.747	467.76	262.98	79.691	151.29	769.82	302.66	234.97	1511.7	-96.782	423.41	450.84	122.65	392.09	438.58	-0.016556	471.88	178.06	68.073	536.07	27.303	88.702	616.48	49.071	35.344	184.13	886.77	288.89	468.5	855.19	-277.6	282.41	1034.1	-287.2	347.26	664.87	182.57	567.69	43.7	7.1463	423.53	256.31	121.22	440.74	85.371	1.0877	95.996	423.91	-0.0025175	133.33	943.39	-26.275	321.49	745.11	205.66	174.77	1011.5	247.98	263.78	1001	-221.59	-132.66	44.492	-85.617	239.11	1525.1	48.003	137.17	1269.5	51.632	149.58	943.33	72.654	430.91	61.714	80.467	381.77	34.475	36.306	216.38	1396.4	-19.871	140.96	1184.8	-8.9878	-142.98	168.41	-18.842	-108.71	41.921	-5.6371	156.06	1002.1	172.25	-218.25	184.93	-58.149	-165.25	161.95	-97.922
285	1.425	394.11	1554.5	-76.458	394.84	1559.8	22.826	337.46	1294.2	-15.37	362.01	1161.4	-9.3924	304.14	881.69	-128.23	337.26	903.98	117.06	254.43	1332.8	147.69	225.02	1169.5	209.22	223.39	760.82	272.01	188.82	699.31	318.45	264.07	1350.8	-164.82	274.23	1185.4	-240.9	404.08	944.58	-295.62	516.96	904.28	-260.79	553.17	843.29	-293.62	381.09	587.78	160.99	400.78	691.49	154.02	468.39	348.88	87.763	214.06	722.05	-179.02	172.69	558.24	-149.95	247.66	629.88	-149.4	192.55	639.5	-166.3	121.36	425.98	-132.36	88.962	319.67	-68.95	-40.245	209.27	-57.755	8.2502	276.84	-122.23	21.791	266.16	-64.133	-62.752	20.105	-28.529	472.4	262.29	79.237	161.75	769.63	302.8	243.06	1511.7	-96.288	431.24	451.33	122.58	399.72	439.72	0.29793	474.95	177.26	67.682	536.52	26.236	88.858	617.43	45.987	34.694	194.18	886.66	289.07	472.86	852.72	-277.31	288.72	1033.7	-286.11	354.96	665.57	183	568.25	41.507	6.7191	428.61	256.39	121.37	441.7	85.105	1.0166	110.1	421.53	-0.25462	141.56	943.33	-26.717	328.99	745.64	206.44	184.32	1011.5	248.39	270.27	1001	-220.38	-128.26	47.962	-86.639	247.27	1525.3	48.489	145.79	1269.8	52.208	157.64	943.78	72.315	432.01	61.629	80.579	382.1	35.042	36.559	225	1396.7	-19.326	149.42	1185.2	-8.6383	-134.85	172.53	-20.186	-104.89	44.541	-6.8635	165.55	1002.1	172.53	-209.02	191.78	-59.965	-156.8	166.72	-99.34
286	1.43	402.09	1555.1	-76.139	402.87	1560.5	23.143	346.05	1294.5	-14.914	370.53	1161.6	-8.6394	312.6	881.52	-127.34	345.31	905.04	117.67	263.23	1333.1	148.18	234.33	1169.6	209.62	233.92	760.86	271.92	199.73	699.25	318.43	272.68	1351	-164.41	281.57	1185.3	-240.18	409.22	942.88	-295.07	521.79	901.26	-260.9	556.98	839.82	-293.94	388.75	588.53	161.33	408.48	692.24	155.26	474.23	348.26	87.346	224.36	721.02	-178.31	185.5	556.51	-149.76	259.27	629.31	-148.71	204.11	638.13	-165.77	135.87	423.86	-132.6	101.32	318.47	-69.135	-30.531	211.17	-58.403	19.899	277.43	-122.74	32.865	266.59	-64.559	-60.042	20.008	-29.526	476.77	261.59	78.869	172.4	769.49	302.91	251.17	1511.8	-95.798	438.78	451.73	122.57	407.06	440.79	0.66919	477.8	176.48	67.358	536.89	25.38	89.09	618.24	43.259	34.169	204.37	886.61	289.22	476.93	850.18	-276.99	294.94	1033.3	-284.99	362.4	666.19	183.53	568.7	39.626	6.3875	433.41	256.42	121.57	442.52	84.902	0.99085	124.49	419.22	-0.43481	149.71	943.29	-27.194	336.25	746.1	207.29	193.93	1011.5	248.78	276.65	1001	-219.14	-123.17	51.724	-87.73	255.43	1525.6	48.966	154.39	1270.3	52.781	165.59	944.23	71.931	432.97	61.564	80.735	382.36	35.544	36.822	233.61	1397.1	-18.81	157.81	1185.7	-8.3138	-126.2	176.77	-21.4	-100.29	47.391	-8.208	175.08	1002.2	172.79	-199.25	198.63	-61.622	-147.82	171.58	-100.64
287	1.435	410.08	1555.8	-75.802	410.89	1561.2	23.479	354.6	1294.7	-14.502	378.97	1161.9	-7.9481	320.96	881.42	-126.48	353.29	906.17	118.29	272.06	1333.4	148.63	243.69	1169.8	210	244.63	760.97	271.76	210.86	699.25	318.36	281.27	1351.2	-164.01	288.95	1185.3	-239.44	414.16	941.17	-294.49	526.36	898.12	-260.98	560.45	836.22	-294.23	396.09	589.17	161.76	415.97	692.84	156.65	479.77	347.61	87.057	234.72	720.03	-177.63	198.49	554.83	-149.6	271	628.83	-148.02	215.78	636.8	-165.27	150.67	421.77	-132.8	114.01	317.41	-69.23	-20.357	213.17	-58.941	31.968	278.08	-123.17	44.331	267.14	-64.875	-56.577	20.058	-30.746	480.88	260.87	78.596	183.23	769.38	302.99	259.29	1511.9	-95.315	445.98	452.03	122.64	414.1	441.75	1.0913	480.43	175.71	67.099	537.18	24.708	89.38	618.91	40.871	33.762	214.69	886.6	289.34	480.69	847.59	-276.63	301.06	1033.1	-283.86	369.58	666.71	184.14	569.05	38.04	6.1405	437.91	256.4	121.82	443.22	84.752	1.0038	139.14	417.01	-0.54217	157.78	943.28	-27.691	343.29	746.49	208.21	203.6	1011.6	249.17	282.94	1001.1	-217.85	-117.34	55.743	-88.88	263.59	1525.8	49.432	162.96	1270.8	53.351	173.47	944.69	71.515	433.81	61.511	80.925	382.58	35.976	37.087	242.19	1397.5	-18.325	166.13	1186.2	-8.011	-117	181.08	-22.46	-94.853	50.439	-9.6562	184.64	1002.3	173.03	-188.97	205.4	-63.084	-138.31	176.49	-101.79
288	1.44	418.08	1556.4	-75.449	418.92	1561.9	23.833	363.1	1295	-14.14	387.33	1162.2	-7.3308	329.24	881.39	-125.65	361.22	907.35	118.95	280.9	1333.7	149.06	253.08	1170	210.35	255.52	761.14	271.54	222.22	699.3	318.24	289.81	1351.5	-163.63	296.38	1185.3	-238.7	418.92	939.47	-293.87	530.68	894.88	-261.03	563.59	832.5	-294.49	403.09	589.67	162.27	423.26	693.28	158.18	484.98	346.91	86.91	245.13	719.09	-177	211.63	553.22	-149.46	282.82	628.47	-147.36	227.55	635.53	-164.8	165.7	419.77	-132.97	127.02	316.5	-69.241	-9.7257	215.28	-59.363	44.428	278.78	-123.5	56.178	267.82	-65.081	-52.264	20.294	-32.191	484.71	260.13	78.424	194.25	769.32	303.04	267.43	1512	-94.843	452.8	452.21	122.81	420.82	442.6	1.5589	482.85	174.96	66.905	537.41	24.194	89.708	619.47	38.804	33.46	225.12	886.65	289.43	484.18	844.96	-276.22	307.1	1032.9	-282.7	376.49	667.13	184.8	569.32	36.727	5.9644	442.08	256.32	122.11	443.81	84.648	1.0499	154	414.95	-0.57959	165.79	943.3	-28.192	350.14	746.8	209.15	213.3	1011.7	249.54	289.14	1001.3	-216.53	-110.73	59.976	-90.079	271.75	1526	49.883	171.5	1271.4	53.917	181.27	945.14	71.083	434.52	61.466	81.141	382.74	36.338	37.348	250.74	1398	-17.87	174.39	1186.8	-7.727	-107.26	185.44	-23.349	-88.528	53.647	-11.19	194.22	1002.5	173.27	-178.2	212.04	-64.325	-128.27	181.42	-102.79
289	1.445	426.09	1557.2	-75.082	426.94	1562.7	24.201	371.55	1295.4	-13.829	395.6	1162.5	-6.7972	337.44	881.45	-124.85	369.1	908.57	119.62	289.75	1334.1	149.46	262.49	1170.3	210.67	266.56	761.37	271.25	233.79	699.39	318.06	298.3	1351.9	-163.26	303.84	1185.4	-237.95	423.51	937.78	-293.22	534.74	891.55	-261.04	566.41	828.68	-294.72	409.73	590.04	162.84	430.35	693.53	159.81	489.85	346.18	86.908	255.6	718.24	-176.41	224.88	551.71	-149.34	294.72	628.23	-146.73	239.41	634.34	-164.36	180.94	417.89	-133.11	140.34	315.76	-69.173	1.3614	217.47	-59.67	57.251	279.55	-123.74	68.391	268.63	-65.184	-47.015	20.753	-33.842	488.27	259.39	78.358	205.44	769.3	303.07	275.58	1512.2	-94.384	459.2	452.26	123.07	427.21	443.29	2.0672	485.06	174.23	66.777	537.59	23.816	90.056	619.92	37.034	33.248	235.67	886.73	289.49	487.38	842.31	-275.78	313.06	1032.8	-281.53	383.13	667.45	185.51	569.53	35.662	5.8458	445.9	256.18	122.42	444.28	84.582	1.1244	169.05	413.07	-0.55292	173.74	943.38	-28.685	356.8	747.05	210.1	223.05	1011.9	249.91	295.26	1001.5	-215.19	-103.28	64.372	-91.313	279.89	1526.3	50.32	180	1272.1	54.479	189	945.61	70.647	435.11	61.426	81.373	382.86	36.633	37.601	259.24	1398.5	-17.443	182.57	1187.5	-7.4591	-96.972	189.8	-24.059	-81.27	56.973	-12.787	203.8	1002.8	173.5	-166.97	218.48	-65.32	-117.72	186.32	-103.63
